<svg xmlns="http://www.w3.org/2000/svg" height="266.733" width="266.733" version="1.0"><path d="M222.067 105.867v-14.4L178.6 116.6v13.667l43.467-24.4zM222.067 118.133v-8.066L178.6 134.4l-.067 7.867 43.534-24.134zM222.067 129.667V123l-43.534 23.533v6.934l43.534-23.8zM222.067 87V59.467L97.533 129.6V33.533L57.867 52.6v128.8l164.2-94.4zM222.067 172.467v-39.2L178.533 157.4l-.333 97.667 4.933-5.2 1.134-1.334 1.2-1.266 2.333-2.534 2.2-2.666 2.133-2.534 4.134-5.066 3.733-5.2.867-1.334.933-1.266 1.733-2.534 1.6-2.666 1.534-2.534 2.933-5.066 2.533-5.2 1.2-2.667 1.134-2.533 2-5.2 1.733-5.067 1.333-5.2.6-2.667.534-2.533.8-5.2.133-1.333.067-.667.133-.6.267-2.533zM97.533 4.467 92.2 5.933 87 7.667 81.867 9.6l-4.934 2.267-5 2.4-4.8 2.666L62.4 19.8 57.867 23v20.133l39.666-18.6V4.467z" style="fill:#fff;fill-rule:evenodd;fill-opacity:1;stroke:none"/></svg>